<svg xmlns="http://www.w3.org/2000/svg" enable-background="new 0 0 28 28" viewBox="0 0 28 28" id="npm"><path fill="#FFE577" d="M21.166,19.156H4.836c-2.117,0-3.834-1.716-3.834-3.834v-2.645c0-2.117,1.716-3.834,3.834-3.834h16.331c2.117,0,3.834,1.716,3.834,3.834v2.645C25,17.44,23.284,19.156,21.166,19.156z"></path><path d="M13.5,19h-4C9.224,19,9,18.776,9,18.5V18H2.5C2.224,18,2,17.776,2,17.5v-8C2,9.224,2.224,9,2.5,9h23C25.776,9,26,9.224,26,9.5v8c0,0.276-0.224,0.5-0.5,0.5H14v0.5C14,18.776,13.776,19,13.5,19z M10,18h3v-0.5c0-0.276,0.224-0.5,0.5-0.5H25v-7H3v7h6.5c0.276,0,0.5,0.224,0.5,0.5V18z"></path><path d="M9.5 18C9.224 18 9 17.776 9 17.5v-8C9 9.224 9.224 9 9.5 9S10 9.224 10 9.5v8C10 17.776 9.776 18 9.5 18zM16.5 18c-.276 0-.5-.224-.5-.5v-8C16 9.224 16.224 9 16.5 9S17 9.224 17 9.5v8C17 17.776 16.776 18 16.5 18zM19.5 18c-.276 0-.5-.224-.5-.5v-5c0-.276.224-.5.5-.5s.5.224.5.5v5C20 17.776 19.776 18 19.5 18zM6.5 18C6.224 18 6 17.776 6 17.5v-5C6 12.224 6.224 12 6.5 12S7 12.224 7 12.5v5C7 17.776 6.776 18 6.5 18zM22.5 18c-.276 0-.5-.224-.5-.5v-5c0-.276.224-.5.5-.5s.5.224.5.5v5C23 17.776 22.776 18 22.5 18zM13.5 15c-.276 0-.5-.224-.5-.5v-2c0-.276.224-.5.5-.5s.5.224.5.5v2C14 14.776 13.776 15 13.5 15z"></path></svg>